<?xml version="1.0" standalone="no"?>
<!DOCTYPE svg PUBLIC "-//W3C//DTD SVG 20010904//EN"
 "http://www.w3.org/TR/2001/REC-SVG-20010904/DTD/svg10.dtd">
<svg version="1.0" xmlns="http://www.w3.org/2000/svg"
 width="200.000000pt" height="200.000000pt" viewBox="0 0 200.000000 200.000000"
 preserveAspectRatio="xMidYMid meet">
<metadata>
Created by potrace 1.11, written by Peter Selinger 2001-2013
</metadata>
<g transform="translate(0.000000,200.000000) scale(0.100000,-0.100000)"
fill="#000000" stroke="none">
<path d="M745 1390 c-29 -11 -42 -30 -48 -69 -5 -28 -1 -39 23 -62 17 -18 39
-29 55 -29 26 0 27 -2 20 -32 -9 -38 -12 -142 -5 -178 5 -22 2 -24 -29 -26
-83 -3 -91 -109 -9 -129 17 -4 31 1 51 19 16 15 25 31 22 36 -13 21 7 8 42
-26 22 -22 39 -51 44 -73 l7 -36 1 36 c1 27 -7 45 -29 70 -17 19 -38 47 -46
63 -14 25 -14 30 -1 44 9 8 32 16 52 17 20 1 40 7 44 13 12 19 91 -16 91 -40
0 -11 13 -33 30 -49 24 -24 36 -29 61 -25 61 9 91 63 64 116 -8 16 -24 34 -35
40 -31 16 -105 -3 -97 -25 3 -6 -1 -12 -9 -12 -8 0 -14 4 -14 8 0 5 -18 14
-40 20 -21 7 -38 15 -38 18 6 21 -17 51 -46 61 -22 7 -38 22 -50 47 -17 36
-17 36 11 71 73 90 198 121 306 77 77 -31 112 -69 126 -136 6 -30 24 -77 38
-105 l27 -52 -32 -27 c-29 -25 -32 -32 -32 -86 0 -55 -2 -59 -26 -65 -25 -7
-122 0 -160 11 -10 3 -3 -2 16 -11 48 -22 150 -30 172 -12 11 8 20 33 23 68 4
45 11 60 35 81 36 32 37 41 5 107 -14 29 -28 69 -31 89 -9 58 -21 80 -61 118
-96 91 -265 99 -370 19 -19 -14 -35 -24 -37 -23 -1 2 -8 18 -15 36 -17 41 -63
60 -106 43z m77 -80 c-5 -37 -42 -54 -71 -34 -27 19 -27 59 1 78 19 14 24 14
48 0 21 -13 25 -22 22 -44z m8 -199 c-6 -15 -8 -39 -5 -53 4 -15 2 -29 -4 -32
-7 -5 -11 6 -12 31 -3 89 7 128 23 99 7 -12 6 -27 -2 -45z m85 -21 c8 -26 -1
-40 -26 -40 -22 0 -34 22 -25 45 8 22 44 18 51 -5z m245 -95 c0 -28 -18 -45
-50 -45 -33 0 -52 34 -37 67 19 43 87 27 87 -22z m-375 -65 c0 -20 -6 -26 -27
-28 -24 -3 -28 0 -28 22 0 25 13 36 40 33 9 -1 15 -13 15 -27z"/>
<path d="M390 779 c0 -5 5 -7 10 -4 6 3 10 8 10 11 0 2 -4 4 -10 4 -5 0 -10
-5 -10 -11z"/>
<path d="M580 778 c0 -10 -5 -18 -12 -18 -9 0 -9 -3 0 -12 7 -7 12 -27 12 -45
0 -26 5 -34 25 -39 35 -9 55 1 55 28 l0 22 -15 -21 c-22 -31 -47 -19 -43 21 2
25 7 30 25 28 12 -2 24 2 28 8 4 6 -5 10 -21 10 -15 0 -33 8 -40 18 -13 16
-13 16 -14 0z"/>
<path d="M830 779 c0 -5 5 -7 10 -4 6 3 10 8 10 11 0 2 -4 4 -10 4 -5 0 -10
-5 -10 -11z"/>
<path d="M883 775 c-12 -22 -6 -83 9 -102 16 -20 56 -15 68 6 7 13 7 22 0 26
-5 3 -10 0 -10 -8 0 -8 -6 -17 -12 -19 -24 -9 -38 4 -38 33 0 27 8 33 37 30 6
-1 14 3 18 9 3 5 -3 10 -14 10 -12 0 -21 6 -21 13 0 8 -3 8 -9 -2 -7 -11 -10
-10 -13 5 -4 18 -4 18 -15 -1z"/>
<path d="M1110 725 c0 -37 4 -65 10 -65 6 0 10 17 10 39 0 34 3 39 27 44 42 8
53 -1 53 -44 0 -21 5 -39 10 -39 12 0 13 69 2 87 -9 14 -62 20 -80 9 -8 -5
-12 0 -12 13 0 12 -4 21 -10 21 -6 0 -10 -28 -10 -65z"/>
<path d="M1510 778 c0 -19 0 -20 -76 -20 l-51 0 0 -49 c0 -54 16 -69 18 -16 1
17 1 35 0 40 0 4 2 7 7 8 4 0 16 2 27 4 10 2 25 -1 33 -7 10 -9 16 -8 23 3 5
8 9 10 10 4 1 -5 3 -14 4 -20 2 -5 3 -20 4 -32 2 -44 82 -39 81 6 -1 14 -2 14
-14 -1 -13 -18 -45 -25 -47 -10 0 4 -2 17 -3 30 -2 12 0 22 3 23 3 0 16 2 28
3 36 4 40 16 5 16 -19 0 -35 7 -41 18 -10 16 -10 16 -11 0z"/>
<path d="M390 710 c0 -27 4 -50 8 -50 4 0 8 23 8 50 0 28 -4 50 -8 50 -4 0 -8
-22 -8 -50z"/>
<path d="M430 708 c0 -26 5 -48 10 -48 6 0 10 15 10 34 0 38 16 57 45 51 11
-2 23 -4 28 -4 4 -1 7 -19 7 -41 0 -22 5 -40 10 -40 12 0 13 70 2 88 -6 8 -27
12 -60 11 l-52 -2 0 -49z"/>
<path d="M687 749 c-9 -18 -5 -58 6 -77 5 -8 27 -12 58 -11 l49 2 0 49 c0 26
-4 48 -10 48 -5 0 -10 -18 -10 -40 0 -22 -4 -41 -10 -41 -5 -1 -16 -2 -22 -3
-28 -5 -47 15 -50 52 -3 26 -6 32 -11 21z"/>
<path d="M827 753 c-8 -15 -2 -83 7 -83 5 0 10 20 11 45 1 41 -7 57 -18 38z"/>
<path d="M987 753 c-4 -3 -7 -23 -7 -44 0 -32 4 -40 24 -45 42 -10 81 -1 85
21 3 19 3 19 -16 2 -11 -10 -31 -16 -44 -14 -19 3 -25 11 -27 35 -2 21 1 33
10 34 7 0 20 2 28 3 8 1 21 -3 28 -8 15 -12 27 -3 17 12 -7 12 -87 15 -98 4z"/>
<path d="M1260 744 c0 -13 3 -14 14 -5 18 15 60 8 64 -12 2 -11 -2 -14 -17
-10 -11 3 -32 2 -46 -1 -20 -5 -26 -12 -23 -29 3 -19 9 -22 59 -23 l56 -2 -3
39 c-3 53 -9 59 -60 59 -34 0 -44 -4 -44 -16z m77 -58 c-6 -17 -67 -19 -67 -2
0 8 8 16 18 18 26 6 53 -3 49 -16z"/>
<path d="M118 608 c-13 -3 384 -6 881 -7 497 -1 901 2 898 6 -9 8 -1749 10
-1779 1z"/>
</g>
</svg>
